<svg xmlns="http://www.w3.org/2000/svg" width="20.571" height="20.572" viewBox="0 0 20.571 20.572">
  <g id="wIPYLe" transform="translate(0)">
    <g id="Grupo_10636" data-name="Grupo 10636" transform="translate(0 0)">
      <path id="Trazado_10015" data-name="Trazado 10015" d="M258.723,533.521a10.286,10.286,0,1,1,10.233-10.339A10.5,10.5,0,0,1,258.723,533.521Zm2.539-5.449c-.659-.148-.982.234-1.387.341-.338.089-.687.4-1.02.116-.294-.25-.1-.62-.029-.928.166-.746.342-1.49.543-2.227.392-1.44.831-2.868,1.194-4.315.166-.662.193-1.371-.775-1.464-1.108-.106-3.288,1.4-3.732,2.619.352-.128.65-.249.957-.343.392-.12.8-.606,1.183-.216.313.314-.025.758-.134,1.128a50.85,50.85,0,0,0-1.5,5.926c-.238,1.434.509,2.061,1.82,1.577A9.65,9.65,0,0,0,261.262,528.072Zm-1.911-10.813c.018.689.291,1.136.96,1.112a1.258,1.258,0,0,0,1.251-1.357.831.831,0,0,0-.9-.975A1.224,1.224,0,0,0,259.351,517.259Z" transform="translate(-248.386 -512.95)" fill="#fff"/>
    </g>
  </g>
</svg>
