<?xml version="1.0" encoding="utf-8"?>
<!-- Generator: Adobe Illustrator 24.3.0, SVG Export Plug-In . SVG Version: 6.00 Build 0)  -->
<svg version="1.1" id="Componente_1_1" xmlns="http://www.w3.org/2000/svg" xmlns:xlink="http://www.w3.org/1999/xlink" x="0px"
	 y="0px" viewBox="0 0 394.9 344.4" style="enable-background:new 0 0 394.9 344.4;" xml:space="preserve">
<style type="text/css">
	.st0{fill:url(#Trazado_10018_1_);}
	.st1{fill:url(#Trazado_10019_1_);}
	.st2{fill:url(#Trazado_10020_1_);}
	.st3{fill:url(#Trazado_10021_1_);}
	.st4{fill:url(#Trazado_10022_1_);}
	.st5{fill:url(#Trazado_10023_1_);}
	.st6{fill:url(#Trazado_10024_1_);}
	.st7{fill:url(#Trazado_10025_1_);}
	.st8{fill:url(#Trazado_10026_1_);}
</style>
<linearGradient id="Trazado_10018_1_" gradientUnits="userSpaceOnUse" x1="-116.9596" y1="555.4755" x2="-116.9596" y2="547.9354" gradientTransform="matrix(19.4118 0 0 -19.5975 2474.4788 11009.1221)">
	<stop  offset="0" style="stop-color:#08FFAA"/>
	<stop  offset="1" style="stop-color:#00EAFD"/>
</linearGradient>
<path id="Trazado_10018" class="st0" d="M143.7,270.9c-5,0.1-9.7-2.8-11.7-7.4c-2.2-4.8-1.1-10.6,2.8-14.2
	c10.1-10.3,20.2-20.7,30.3-31c20.8-21.1,41.7-42.1,62.6-63.1c9.3-9.3,18.5-18.8,27.9-28c4.3-4.7,11.3-5.5,16.6-2
	c5.6,4.2,6.7,12,2.6,17.6c-0.4,0.5-0.9,1.1-1.3,1.5c-14.5,14.7-29,29.5-43.6,44.2c-22.2,22.5-44.4,45.1-66.6,67.6
	c-3.1,3.4-6.4,6.5-9.9,9.5C150.3,267.7,147.1,269.5,143.7,270.9z"/>
<linearGradient id="Trazado_10019_1_" gradientUnits="userSpaceOnUse" x1="-114.9458" y1="553.741" x2="-114.9458" y2="546.2009" gradientTransform="matrix(15.226 0 0 -15.4329 1910.0597 8606.4229)">
	<stop  offset="0" style="stop-color:#08FFAA"/>
	<stop  offset="1" style="stop-color:#00EAFD"/>
</linearGradient>
<path id="Trazado_10019" class="st1" d="M204.3,60.6c5,0.3,9.4,3.2,11.6,7.7c2.4,4.5,1.6,10.2-2.1,13.8
	c-10,10.5-20.1,20.9-30.2,31.2c-18.8,19-37.6,38-56.5,56.9c-1.4,1.5-2.9,2.8-4.5,4c-4.9,4.1-12.1,3.6-16.4-1
	c-4.6-4.2-5-11.3-0.8-15.9c0,0,0,0,0,0c8.1-9,16.6-17.5,25.1-26.1c21.6-21.8,43.4-43.6,65.2-65.3C198.3,63.7,201.2,62,204.3,60.6z"
	/>
<linearGradient id="Trazado_10020_1_" gradientUnits="userSpaceOnUse" x1="-107.6089" y1="547.3786" x2="-107.6089" y2="539.8385" gradientTransform="matrix(12.479 0 0 -12.6408 1549.7163 7004.375)">
	<stop  offset="0" style="stop-color:#08FFAA"/>
	<stop  offset="1" style="stop-color:#00EAFD"/>
</linearGradient>
<path id="Trazado_10020" class="st2" d="M159.8,165.8c1.2-2.7,2.7-5.3,4.6-7.5c22.7-23.1,45.5-46.1,68.4-69
	c3.1-3.9,8.3-5.3,12.9-3.5c4.9,1.5,8.3,6.1,8.1,11.3c-0.4,4.1-2.1,8-4.9,11c-21.5,22.2-43.4,44.1-65.1,66.1c-3.4,4.7-9.3,7-15,5.8
	C162.9,178.4,159.7,174.1,159.8,165.8z"/>
<linearGradient id="Trazado_10021_1_" gradientUnits="userSpaceOnUse" x1="-104.7798" y1="530.741" x2="-104.7798" y2="523.201" gradientTransform="matrix(7.9546 0 0 -7.9879 931.524 4329.9409)">
	<stop  offset="0" style="stop-color:#08FFAA"/>
	<stop  offset="1" style="stop-color:#00EAFD"/>
</linearGradient>
<path id="Trazado_10021" class="st3" d="M68.1,137c1.2-2.9,2.7-5.7,4.6-8.2c11-11.4,22.2-22.7,33.5-33.8c4.4-5.3,12.2-6,17.5-1.6
	c0.1,0.1,0.2,0.1,0.2,0.2c5,4.4,5.6,12.1,1.2,17.1c-0.2,0.2-0.3,0.4-0.5,0.6c-11.8,12.5-24,24.6-36.3,36.5
	c-3.3,3.2-8.3,3.9-12.3,1.8C71.1,147.1,68.1,142.3,68.1,137z"/>
<linearGradient id="Trazado_10022_1_" gradientUnits="userSpaceOnUse" x1="-101.5187" y1="518.4139" x2="-101.5187" y2="510.8738" gradientTransform="matrix(7.8176 0 0 -7.7581 916.5486 4210.9092)">
	<stop  offset="0" style="stop-color:#08FFAA"/>
	<stop  offset="1" style="stop-color:#00EAFD"/>
</linearGradient>
<path id="Trazado_10022" class="st4" d="M152.4,201.6c-1.5,3.6-3.5,6.9-5.8,10c-10.2,10.7-20.7,21.1-31.2,31.5
	c-4.3,5.1-12,5.8-17.1,1.5c-0.3-0.3-0.6-0.6-0.9-0.9c-4.9-4.5-5.1-12.1-0.6-17c0.3-0.4,0.7-0.7,1.1-1c11-11.2,22.2-22.3,33.3-33.3
	c3.4-3.6,8.8-4.5,13.2-2.2C148.8,192.3,151.9,196.6,152.4,201.6z"/>
<linearGradient id="Trazado_10023_1_" gradientUnits="userSpaceOnUse" x1="-67.6543" y1="495.8359" x2="-67.6543" y2="488.2959" gradientTransform="matrix(5.5589 0 0 -5.4968 632.8973 2910.2188)">
	<stop  offset="0" style="stop-color:#08FFAA"/>
	<stop  offset="1" style="stop-color:#00EAFD"/>
</linearGradient>
<path id="Trazado_10023" class="st5" d="M277.8,197.6c-1.1,2.8-2.5,5.4-4.2,7.8c-5.4,5.9-11.1,11.6-17,17c-4.2,4.6-11.4,4.9-16,0.7
	c-0.4-0.3-0.7-0.7-1.1-1.1c-4.7-4.6-4.9-12.1-0.4-16.8c0.1-0.1,0.2-0.2,0.4-0.3c5.5-5.8,11.2-11.5,17-17c3.6-3.4,8.9-4.1,13.3-1.9
	C274.6,187.9,277.8,192.5,277.8,197.6z"/>
<linearGradient id="Trazado_10024_1_" gradientUnits="userSpaceOnUse" x1="-51.3617" y1="483.5707" x2="-51.3617" y2="476.0306" gradientTransform="matrix(3.2863 0 0 -3.553 314.953 1775.795)">
	<stop  offset="0" style="stop-color:#08FFAA"/>
	<stop  offset="1" style="stop-color:#00EAFD"/>
</linearGradient>
<path id="Trazado_10024" class="st6" d="M146.5,57.7c6.8,1.1,11.9,6.9,12,13.8c-0.2,6.9-5.6,12.5-12.4,13c-7-0.2-12.5-6-12.3-13
	c0-0.1,0-0.2,0-0.3C133.6,63.9,139.3,57.9,146.5,57.7z"/>
<linearGradient id="Trazado_10025_1_" gradientUnits="userSpaceOnUse" x1="-35.7411" y1="425.2859" x2="-35.7411" y2="417.7458" gradientTransform="matrix(3.273 0 0 -3.2564 320.8335 1630.1449)">
	<stop  offset="0" style="stop-color:#08FFAA"/>
	<stop  offset="1" style="stop-color:#00EAFD"/>
</linearGradient>
<path id="Trazado_10025" class="st7" d="M204,269.7c-6.3,0.6-11.8-4-12.4-10.3c-0.1-0.7-0.1-1.3,0-2c0-6.7,5.4-12.2,12.1-12.3
	c6.9,0.3,12.4,5.9,12.5,12.8c0.4,6.1-4.2,11.4-10.3,11.8C205.2,269.8,204.6,269.8,204,269.7z"/>
<linearGradient id="Trazado_10026_1_" gradientUnits="userSpaceOnUse" x1="-68.3206" y1="440.1621" x2="-68.3206" y2="432.6221" gradientTransform="matrix(3.2914 0 0 -3.2325 307.1666 1608.5072)">
	<stop  offset="0" style="stop-color:#08FFAA"/>
	<stop  offset="1" style="stop-color:#00EAFD"/>
</linearGradient>
<path id="Trazado_10026" class="st8" d="M82.4,185.7c6.7-0.2,12.2,5.1,12.3,11.8c0,0.1,0,0.1,0,0.2c-0.4,6.9-6,12.3-12.9,12.4
	c-6.7-0.2-12.1-5.7-11.9-12.5C70,190.9,75.6,185.5,82.4,185.7L82.4,185.7z"/>
</svg>
