<svg xmlns="http://www.w3.org/2000/svg" width="20.58" height="20.576" viewBox="0 0 20.58 20.576">
  <g id="_6i7Gxb" data-name="6i7Gxb" transform="translate(173.131 -273.527)">
    <g id="Grupo_10675" data-name="Grupo 10675" transform="translate(-173.131 273.527)">
      <path id="Trazado_10036" data-name="Trazado 10036" d="M-163.284,273.527h.844a1.172,1.172,0,0,0,.115.025c.529.06,1.065.082,1.585.187a10.163,10.163,0,0,1,3.649,1.538,9.942,9.942,0,0,1,2.4,2.247,10.228,10.228,0,0,1,2.118,5.6,10.213,10.213,0,0,1-.107,2.351,10.385,10.385,0,0,1-.736,2.471,10.274,10.274,0,0,1-2.633,3.6,9.961,9.961,0,0,1-2.758,1.736,9.948,9.948,0,0,1-2.5.7c-.362.051-.727.079-1.09.118h-.844c-.045-.008-.09-.02-.135-.025-.522-.06-1.053-.078-1.565-.187a10.193,10.193,0,0,1-4.733-2.384,10.124,10.124,0,0,1-2.593-3.558,10.221,10.221,0,0,1-.788-5.34,10,10,0,0,1,.89-3.144,10.251,10.251,0,0,1,3.764-4.3,10.014,10.014,0,0,1,4.03-1.518C-164.012,273.592-163.647,273.566-163.284,273.527ZM-166.7,289.64l3.872-3.882,3.84,3.867,1.967-1.952L-160.9,283.8l3.857-3.846-1.948-1.962-3.84,3.859L-166.688,278l-1.969,1.982,3.893,3.875-3.882,3.846Z" transform="translate(173.131 -273.527)" fill="#fff"/>
    </g>
  </g>
</svg>
